<svg width="412px" height="398px" viewBox="0 0 412 398" version="1.1" xmlns="http://www.w3.org/2000/svg" xmlns:xlink="http://www.w3.org/1999/xlink">     <g id="Page-1" stroke="none" stroke-width="1" fill="none" fill-rule="evenodd">         <g id="Icon" transform="translate(236.000000, 259.000000)" fill="#FFFFFF">             <g id="Glyph" transform="translate(-236.000000, -259.000000)">                 <path d="M159.566565,261.719008 L68.4385382,261.719008 C30.6409773,261.719008 0,228.29392 0,187.061983 C0,145.830047 30.6409773,112.404959 68.4385382,112.404959 C76.628884,112.404959 84.4831962,113.974416 91.7625316,116.852676 C91.7260287,115.654318 91.7076412,114.451267 91.7076412,113.243802 C91.7076412,50.700977 141.039615,0 201.893688,0 C253.510923,0 296.838401,36.4776204 308.80225,85.7186698 C316.888864,82.3580782 325.594311,80.5289256 334.664452,80.5289256 C377.375696,80.5289256 412,121.089707 412,171.123967 C412,220.890712 377.744952,261.285011 335.348837,261.715535 L230.507448,261.719008 L277.9367,128.089615 L159.566565,261.719008 Z" id="Path-2"></path>                 <polygon id="Path" transform="translate(199.325581, 232.268595) scale(-1, -1) rotate(12.000000) translate(-199.325581, -232.268595) " points="178.910458 166 237.651163 166 161 298.53719"></polygon>                 <polygon id="Path" transform="translate(217.500000, 339.500000) rotate(12.000000) translate(-217.500000, -339.500000) " points="199.122673 273 252 273 183 406"></polygon>             </g>         </g>     </g> </svg>
